<mxfile host="app.diagrams.net" agent="Mozilla/5.0 (X11; Linux x86_64) AppleWebKit/537.36 (KHTML, like Gecko) Chrome/130.0.0.0 Safari/537.36" version="26.0.6">
  <diagram name="Page-1" id="jmSWN09cEodel8YmtCqm">
    <mxGraphModel dx="1056" dy="704" grid="1" gridSize="10" guides="1" tooltips="1" connect="1" arrows="1" fold="1" page="1" pageScale="1" pageWidth="850" pageHeight="1100" math="0" shadow="0">
      <root>
        <mxCell id="0" />
        <mxCell id="1" parent="0" />
        <mxCell id="NLXJhFhTE_TYRiMKEVt1-61" style="edgeStyle=orthogonalEdgeStyle;rounded=0;orthogonalLoop=1;jettySize=auto;html=1;entryX=1;entryY=0.5;entryDx=0;entryDy=0;" edge="1" parent="1" source="NLXJhFhTE_TYRiMKEVt1-7" target="NLXJhFhTE_TYRiMKEVt1-23">
          <mxGeometry relative="1" as="geometry">
            <Array as="points">
              <mxPoint x="260" y="320" />
              <mxPoint x="780" y="320" />
              <mxPoint x="780" y="200" />
            </Array>
          </mxGeometry>
        </mxCell>
        <mxCell id="NLXJhFhTE_TYRiMKEVt1-59" style="edgeStyle=orthogonalEdgeStyle;rounded=0;orthogonalLoop=1;jettySize=auto;html=1;entryX=1;entryY=0.5;entryDx=0;entryDy=0;" edge="1" parent="1" source="NLXJhFhTE_TYRiMKEVt1-6" target="NLXJhFhTE_TYRiMKEVt1-23">
          <mxGeometry relative="1" as="geometry">
            <Array as="points">
              <mxPoint x="260" y="320" />
              <mxPoint x="780" y="320" />
              <mxPoint x="780" y="200" />
            </Array>
          </mxGeometry>
        </mxCell>
        <mxCell id="NLXJhFhTE_TYRiMKEVt1-60" style="edgeStyle=orthogonalEdgeStyle;rounded=0;orthogonalLoop=1;jettySize=auto;html=1;entryX=1;entryY=0.5;entryDx=0;entryDy=0;" edge="1" parent="1" source="NLXJhFhTE_TYRiMKEVt1-2" target="NLXJhFhTE_TYRiMKEVt1-23">
          <mxGeometry relative="1" as="geometry">
            <Array as="points">
              <mxPoint x="130" y="320" />
              <mxPoint x="780" y="320" />
              <mxPoint x="780" y="200" />
            </Array>
          </mxGeometry>
        </mxCell>
        <mxCell id="NLXJhFhTE_TYRiMKEVt1-2" value="Physical&lt;div&gt;Traits&lt;/div&gt;" style="rounded=0;whiteSpace=wrap;html=1;" vertex="1" parent="1">
          <mxGeometry x="70" y="90" width="120" height="60" as="geometry" />
        </mxCell>
        <mxCell id="NLXJhFhTE_TYRiMKEVt1-58" style="edgeStyle=orthogonalEdgeStyle;rounded=0;orthogonalLoop=1;jettySize=auto;html=1;entryX=1;entryY=0.5;entryDx=0;entryDy=0;" edge="1" parent="1" source="NLXJhFhTE_TYRiMKEVt1-3" target="NLXJhFhTE_TYRiMKEVt1-23">
          <mxGeometry relative="1" as="geometry">
            <Array as="points">
              <mxPoint x="130" y="320" />
              <mxPoint x="780" y="320" />
              <mxPoint x="780" y="200" />
            </Array>
          </mxGeometry>
        </mxCell>
        <mxCell id="NLXJhFhTE_TYRiMKEVt1-3" value="Emotional&lt;br&gt;&lt;div&gt;Traits&lt;/div&gt;" style="rounded=0;whiteSpace=wrap;html=1;" vertex="1" parent="1">
          <mxGeometry x="70" y="170" width="120" height="60" as="geometry" />
        </mxCell>
        <mxCell id="NLXJhFhTE_TYRiMKEVt1-5" value="Personal&lt;div&gt;Background&lt;/div&gt;" style="rounded=0;whiteSpace=wrap;html=1;" vertex="1" parent="1">
          <mxGeometry x="200" y="250" width="120" height="60" as="geometry" />
        </mxCell>
        <mxCell id="NLXJhFhTE_TYRiMKEVt1-6" value="Personal&lt;div&gt;Motivations&lt;/div&gt;" style="rounded=0;whiteSpace=wrap;html=1;" vertex="1" parent="1">
          <mxGeometry x="200" y="170" width="120" height="60" as="geometry" />
        </mxCell>
        <mxCell id="NLXJhFhTE_TYRiMKEVt1-7" value="Important&lt;div&gt;Memories&lt;/div&gt;" style="rounded=0;whiteSpace=wrap;html=1;" vertex="1" parent="1">
          <mxGeometry x="200" y="90" width="120" height="60" as="geometry" />
        </mxCell>
        <mxCell id="NLXJhFhTE_TYRiMKEVt1-56" style="edgeStyle=orthogonalEdgeStyle;rounded=0;orthogonalLoop=1;jettySize=auto;html=1;entryX=1;entryY=0.5;entryDx=0;entryDy=0;" edge="1" parent="1" target="NLXJhFhTE_TYRiMKEVt1-23">
          <mxGeometry relative="1" as="geometry">
            <mxPoint x="420" y="320.02439024390253" as="sourcePoint" />
            <Array as="points">
              <mxPoint x="780" y="321" />
              <mxPoint x="780" y="200" />
            </Array>
          </mxGeometry>
        </mxCell>
        <mxCell id="NLXJhFhTE_TYRiMKEVt1-54" style="edgeStyle=orthogonalEdgeStyle;rounded=0;orthogonalLoop=1;jettySize=auto;html=1;entryX=1;entryY=0.5;entryDx=0;entryDy=0;exitX=0.5;exitY=1;exitDx=0;exitDy=0;" edge="1" parent="1" source="NLXJhFhTE_TYRiMKEVt1-23" target="NLXJhFhTE_TYRiMKEVt1-46">
          <mxGeometry relative="1" as="geometry">
            <mxPoint x="755" y="270" as="targetPoint" />
            <Array as="points">
              <mxPoint x="680" y="270" />
            </Array>
          </mxGeometry>
        </mxCell>
        <mxCell id="NLXJhFhTE_TYRiMKEVt1-23" value="LLM-Person" style="rhombus;whiteSpace=wrap;html=1;" vertex="1" parent="1">
          <mxGeometry x="610" y="135" width="140" height="130" as="geometry" />
        </mxCell>
        <mxCell id="NLXJhFhTE_TYRiMKEVt1-25" value="Active Memory" style="rounded=0;whiteSpace=wrap;html=1;" vertex="1" parent="1">
          <mxGeometry x="460" y="90" width="120" height="60" as="geometry" />
        </mxCell>
        <mxCell id="NLXJhFhTE_TYRiMKEVt1-57" style="edgeStyle=orthogonalEdgeStyle;rounded=0;orthogonalLoop=1;jettySize=auto;html=1;entryX=1;entryY=0.5;entryDx=0;entryDy=0;" edge="1" parent="1" source="NLXJhFhTE_TYRiMKEVt1-4" target="NLXJhFhTE_TYRiMKEVt1-23">
          <mxGeometry relative="1" as="geometry">
            <Array as="points">
              <mxPoint x="130" y="320" />
              <mxPoint x="780" y="320" />
              <mxPoint x="780" y="200" />
            </Array>
          </mxGeometry>
        </mxCell>
        <mxCell id="NLXJhFhTE_TYRiMKEVt1-4" value="Personality&lt;div&gt;&lt;div&gt;Traits&lt;/div&gt;&lt;/div&gt;" style="rounded=0;whiteSpace=wrap;html=1;" vertex="1" parent="1">
          <mxGeometry x="70" y="250" width="120" height="60" as="geometry" />
        </mxCell>
        <mxCell id="NLXJhFhTE_TYRiMKEVt1-45" style="edgeStyle=orthogonalEdgeStyle;rounded=0;orthogonalLoop=1;jettySize=auto;html=1;" edge="1" parent="1" source="NLXJhFhTE_TYRiMKEVt1-42" target="NLXJhFhTE_TYRiMKEVt1-43">
          <mxGeometry relative="1" as="geometry" />
        </mxCell>
        <mxCell id="NLXJhFhTE_TYRiMKEVt1-42" value="User" style="ellipse;whiteSpace=wrap;html=1;aspect=fixed;" vertex="1" parent="1">
          <mxGeometry x="340" y="160" width="80" height="80" as="geometry" />
        </mxCell>
        <mxCell id="NLXJhFhTE_TYRiMKEVt1-44" style="edgeStyle=orthogonalEdgeStyle;rounded=0;orthogonalLoop=1;jettySize=auto;html=1;" edge="1" parent="1" source="NLXJhFhTE_TYRiMKEVt1-43" target="NLXJhFhTE_TYRiMKEVt1-23">
          <mxGeometry relative="1" as="geometry" />
        </mxCell>
        <mxCell id="NLXJhFhTE_TYRiMKEVt1-43" value="Prompt/Message" style="rounded=0;whiteSpace=wrap;html=1;" vertex="1" parent="1">
          <mxGeometry x="460" y="170" width="120" height="60" as="geometry" />
        </mxCell>
        <mxCell id="NLXJhFhTE_TYRiMKEVt1-50" style="edgeStyle=orthogonalEdgeStyle;rounded=0;orthogonalLoop=1;jettySize=auto;html=1;" edge="1" parent="1" source="NLXJhFhTE_TYRiMKEVt1-46" target="NLXJhFhTE_TYRiMKEVt1-42">
          <mxGeometry relative="1" as="geometry">
            <Array as="points">
              <mxPoint x="380" y="270" />
            </Array>
          </mxGeometry>
        </mxCell>
        <mxCell id="NLXJhFhTE_TYRiMKEVt1-46" value="Reply" style="rounded=0;whiteSpace=wrap;html=1;" vertex="1" parent="1">
          <mxGeometry x="460" y="240" width="120" height="60" as="geometry" />
        </mxCell>
        <mxCell id="NLXJhFhTE_TYRiMKEVt1-62" value="" style="endArrow=classic;startArrow=classic;html=1;rounded=0;entryX=0;entryY=0.5;entryDx=0;entryDy=0;flowAnimation=1;strokeColor=#FF2424;" edge="1" parent="1" target="NLXJhFhTE_TYRiMKEVt1-25">
          <mxGeometry width="50" height="50" relative="1" as="geometry">
            <mxPoint x="320" y="120" as="sourcePoint" />
            <mxPoint x="370" y="70" as="targetPoint" />
          </mxGeometry>
        </mxCell>
        <mxCell id="NLXJhFhTE_TYRiMKEVt1-63" value="" style="endArrow=classic;startArrow=classic;html=1;rounded=0;exitX=1;exitY=0.5;exitDx=0;exitDy=0;entryX=0.5;entryY=0;entryDx=0;entryDy=0;strokeColor=#FF0300;flowAnimation=1;" edge="1" parent="1" source="NLXJhFhTE_TYRiMKEVt1-25" target="NLXJhFhTE_TYRiMKEVt1-23">
          <mxGeometry width="50" height="50" relative="1" as="geometry">
            <mxPoint x="650" y="140" as="sourcePoint" />
            <mxPoint x="700" y="90" as="targetPoint" />
            <Array as="points">
              <mxPoint x="680" y="120" />
            </Array>
          </mxGeometry>
        </mxCell>
        <mxCell id="NLXJhFhTE_TYRiMKEVt1-64" value="LLM-PERSON PROPOSAL MODEL DIAGRAM" style="text;html=1;align=center;verticalAlign=middle;resizable=0;points=[];autosize=1;strokeColor=none;fillColor=none;fontSize=20;labelBackgroundColor=#000000;fontColor=#FFFFFF;labelBorderColor=default;textShadow=0;fontStyle=1" vertex="1" parent="1">
          <mxGeometry x="215" y="20" width="440" height="40" as="geometry" />
        </mxCell>
      </root>
    </mxGraphModel>
  </diagram>
</mxfile>
